#define modbrowse2_width 48
#define modbrowse2_height 48
static unsigned char modbrowse2_bits[] = {
  0x00, 0x00, 0x00, 0x00, 0x00, 0x00, 0x00, 0x00, 0x00, 0x00, 0x00, 0x00,
  0x00, 0x00, 0x00, 0x00, 0x00, 0x00, 0x00, 0x00, 0x00, 0x00, 0x00, 0x00,
  0x00, 0x00, 0x00, 0x00, 0x00, 0x00, 0x00, 0x00, 0xfe, 0x1f, 0x00, 0x00,
  0x00, 0x00, 0xfe, 0x1f, 0x00, 0x00, 0x00, 0x00, 0x26, 0x1a, 0x00, 0x00,
  0x00, 0x00, 0x16, 0x19, 0x00, 0x00, 0x00, 0x00, 0x8e, 0x18, 0x00, 0x00,
  0x00, 0x00, 0xfe, 0x1f, 0x00, 0x00, 0x00, 0x00, 0xfe, 0x1f, 0x00, 0x00,
  0x00, 0x00, 0x80, 0x00, 0x00, 0x00, 0x00, 0x00, 0x40, 0x00, 0x00, 0x00,
  0x00, 0x00, 0x80, 0x00, 0x00, 0x00, 0x00, 0x55, 0x55, 0x55, 0x55, 0x00,
  0x00, 0xaa, 0xaa, 0xaa, 0x2a, 0x00, 0x00, 0x01, 0x40, 0x00, 0x40, 0x00,
  0x00, 0x02, 0x80, 0x00, 0x20, 0x00, 0x00, 0x01, 0x40, 0x00, 0x40, 0x00,
  0xf8, 0x7f, 0xfe, 0x1f, 0xff, 0x0f, 0xf8, 0x7f, 0xfe, 0x1f, 0xff, 0x0f,
  0x58, 0x64, 0x46, 0x1c, 0x47, 0x0c, 0x38, 0x62, 0x26, 0x1a, 0x23, 0x0e,
  0x18, 0x71, 0x16, 0x19, 0x13, 0x0d, 0xf8, 0x7f, 0xfe, 0x1f, 0xff, 0x0f,
  0xf8, 0x7f, 0xfe, 0x1f, 0xff, 0x0f, 0x00, 0x00, 0x00, 0x00, 0xa0, 0x00,
  0x00, 0x00, 0x00, 0x00, 0x40, 0x00, 0x00, 0xaa, 0xaa, 0xaa, 0xaa, 0x00,
  0x00, 0x54, 0x55, 0x55, 0x55, 0x00, 0x00, 0x02, 0x00, 0x02, 0x80, 0x00,
  0x00, 0x04, 0x00, 0x01, 0x40, 0x00, 0x00, 0x02, 0x00, 0x02, 0x80, 0x00,
  0xf0, 0xff, 0xf8, 0x7f, 0xfe, 0x1f, 0xf0, 0xff, 0xf8, 0x7f, 0xfe, 0x1f,
  0x30, 0xd1, 0x18, 0x71, 0x16, 0x19, 0xb0, 0xc8, 0x98, 0x68, 0x8e, 0x18,
  0x70, 0xc4, 0x58, 0x64, 0x46, 0x1c, 0xf0, 0xff, 0xf8, 0x7f, 0xfe, 0x1f,
  0xf0, 0xff, 0xf8, 0x7f, 0xfe, 0x1f, 0x00, 0x00, 0x00, 0x00, 0x00, 0x00,
  0x00, 0x00, 0x00, 0x00, 0x00, 0x00, 0x00, 0x00, 0x00, 0x00, 0x00, 0x00,
  0x00, 0x00, 0x00, 0x00, 0x00, 0x00, 0x00, 0x00, 0x00, 0x00, 0x00, 0x00,
  0x00, 0x00, 0x00, 0x00, 0x00, 0x00, 0x00, 0x00, 0x00, 0x00, 0x00, 0x00,
  };
