#define tclfish_fly_width 48
#define tclfish_fly_height 48
static unsigned char tclfish_fly_bits[] = {
  0x00, 0x00, 0x00, 0x00, 0x00, 0x00, 0x00, 0x00, 0x00, 0x00, 0x00, 0x00,
  0x00, 0x00, 0x00, 0x00, 0x00, 0x00, 0x00, 0x00, 0x00, 0x00, 0x00, 0x03,
  0x00, 0x00, 0x00, 0x00, 0xe0, 0x04, 0x00, 0x00, 0x00, 0x00, 0x00, 0x03,
  0x00, 0x00, 0x00, 0xde, 0x07, 0x04, 0x00, 0x00, 0xe0, 0x2f, 0x7e, 0x08,
  0x00, 0x00, 0x7f, 0x19, 0xd1, 0x08, 0x00, 0xc0, 0x88, 0x88, 0x88, 0x01,
  0x00, 0x70, 0x44, 0x44, 0x44, 0x02, 0x00, 0x28, 0xa2, 0x3f, 0x22, 0x02,
  0x00, 0x16, 0x79, 0x11, 0x11, 0x05, 0x80, 0x8b, 0x8f, 0x88, 0x8b, 0x06,
  0xc0, 0xe6, 0x44, 0x44, 0x4e, 0x23, 0x40, 0x3a, 0x22, 0x3e, 0xb4, 0x21,
  0x20, 0x17, 0x11, 0xe9, 0x45, 0x10, 0xa0, 0xc9, 0xff, 0x08, 0x0b, 0x18,
  0xd0, 0xdc, 0x80, 0x0f, 0x1c, 0x06, 0xb0, 0xe3, 0x00, 0x00, 0x00, 0x00,
  0xf8, 0x00, 0x00, 0xe0, 0x01, 0x00, 0x18, 0x00, 0x00, 0x30, 0xc1, 0x07,
  0x18, 0x80, 0x7f, 0x18, 0x31, 0x08, 0x18, 0x70, 0x80, 0x0f, 0x09, 0x08,
  0x18, 0x0c, 0x00, 0x83, 0x06, 0x08, 0x30, 0x02, 0xe0, 0x40, 0x02, 0x08,
  0x60, 0x01, 0x30, 0x38, 0x02, 0x04, 0x80, 0x0c, 0x18, 0x06, 0x02, 0x04,
  0x40, 0x1e, 0x88, 0x81, 0x01, 0x04, 0x20, 0x37, 0x4c, 0xf0, 0x00, 0x02,
  0x20, 0x3f, 0x06, 0x8e, 0x00, 0x01, 0x10, 0x1e, 0x00, 0x81, 0x80, 0x00,
  0x10, 0x0c, 0x00, 0x60, 0x70, 0x00, 0x10, 0x00, 0x00, 0x1c, 0x80, 0x00,
  0x10, 0x00, 0x00, 0x00, 0x00, 0x01, 0x20, 0x00, 0x00, 0x00, 0x00, 0x02,
  0x60, 0x40, 0x00, 0x00, 0x00, 0x02, 0x80, 0x3f, 0x00, 0xc0, 0x00, 0x02,
  0x00, 0x10, 0x00, 0x20, 0x01, 0x04, 0x00, 0x0c, 0x00, 0x18, 0x02, 0x04,
  0x00, 0x04, 0x00, 0x06, 0x04, 0x04, 0x00, 0x38, 0xc0, 0x01, 0x18, 0x04,
  0x00, 0xc0, 0x3f, 0x00, 0xe0, 0x03, 0x00, 0x00, 0x00, 0x00, 0x00, 0x00,
  0x00, 0x00, 0x00, 0x00, 0x00, 0x00, 0x00, 0x00, 0x00, 0x00, 0x00, 0x00,
  0x00, 0x00, 0x00, 0x00, 0x00, 0x00, 0x00, 0x00, 0x00, 0x00, 0x00, 0x00,
  };
