#define tclfish_width 48
#define tclfish_height 48
static unsigned char tclfish_bits[] = {
  0x00, 0x00, 0x00, 0x00, 0x00, 0x00, 0x00, 0x00, 0x00, 0x00, 0x00, 0x00,
  0x00, 0x00, 0x00, 0x00, 0x00, 0x06, 0x00, 0x00, 0x00, 0x00, 0xc0, 0x09,
  0x00, 0x00, 0x00, 0x00, 0x00, 0x06, 0x00, 0x00, 0x00, 0xbc, 0x0f, 0x08,
  0x00, 0x00, 0xc0, 0x5f, 0xfc, 0x10, 0x00, 0x00, 0xfe, 0x32, 0xa2, 0x11,
  0x00, 0x80, 0x11, 0x11, 0x11, 0x03, 0x00, 0xe0, 0x88, 0x88, 0x88, 0x04,
  0x00, 0x50, 0x44, 0x7f, 0x44, 0x04, 0x00, 0x2c, 0xf2, 0x22, 0x22, 0x0a,
  0x00, 0x17, 0x1f, 0x11, 0x17, 0x0d, 0x80, 0xcd, 0x89, 0x88, 0xbc, 0x46,
  0x80, 0x74, 0x44, 0x7c, 0x6c, 0x43, 0x40, 0x2e, 0x22, 0xd2, 0x8b, 0x20,
  0x40, 0x93, 0xff, 0x11, 0x16, 0x30, 0xa0, 0xb9, 0x01, 0x3f, 0x38, 0x0c,
  0x60, 0xc7, 0x01, 0x3c, 0x00, 0x00, 0xf0, 0x01, 0x00, 0x00, 0x80, 0x07,
  0x30, 0x00, 0x00, 0x00, 0x60, 0x0c, 0x30, 0x00, 0xff, 0x01, 0x90, 0x08,
  0x30, 0xe0, 0x44, 0x0e, 0x48, 0x0c, 0x30, 0x38, 0x22, 0x32, 0x24, 0x0a,
  0x60, 0x14, 0x11, 0x51, 0x12, 0x05, 0xc0, 0x22, 0x22, 0xa2, 0x23, 0x06,
  0x00, 0x5d, 0x44, 0x44, 0x44, 0x02, 0x80, 0xbc, 0x88, 0x88, 0x88, 0x01,
  0x40, 0x6e, 0x44, 0x44, 0xc4, 0x00, 0x40, 0x7e, 0x22, 0x22, 0x62, 0x00,
  0x20, 0x3d, 0x11, 0x11, 0x31, 0x00, 0x20, 0x3a, 0x22, 0x22, 0x32, 0x00,
  0x60, 0x44, 0x44, 0x44, 0x44, 0x00, 0xa0, 0x88, 0x88, 0x88, 0x88, 0x00,
  0x40, 0x44, 0x44, 0x44, 0x44, 0x01, 0xc0, 0xa2, 0x22, 0x22, 0x22, 0x02,
  0x00, 0x7f, 0x11, 0x91, 0x11, 0x05, 0x00, 0x20, 0x22, 0x62, 0x22, 0x0a,
  0x00, 0x58, 0x44, 0x34, 0x44, 0x0c, 0x00, 0x88, 0x88, 0x0c, 0x88, 0x08,
  0x00, 0x70, 0xc4, 0x03, 0x70, 0x0c, 0x00, 0x80, 0x7f, 0x00, 0xc0, 0x07,
  0x00, 0x00, 0x00, 0x00, 0x00, 0x00, 0x00, 0x00, 0x00, 0x00, 0x00, 0x00,
  0x00, 0x00, 0x00, 0x00, 0x00, 0x00, 0x00, 0x00, 0x00, 0x00, 0x00, 0x00,
  0x00, 0x00, 0x00, 0x00, 0x00, 0x00, 0x00, 0x00, 0x00, 0x00, 0x00, 0x00,
  };
