#define tkcvs32_width 32
#define tkcvs32_height 32
static char tkcvs32_bits[] = {
   0x00, 0x00, 0x00, 0x00, 0x00, 0x00, 0x00, 0x00, 0x00, 0x00, 0x00, 0x00,
   0x00, 0x00, 0x00, 0x00, 0xf0, 0xff, 0xff, 0x07, 0xb0, 0x00, 0x90, 0x07,
   0xd0, 0x00, 0x90, 0x07, 0xf0, 0xff, 0xff, 0x07, 0x10, 0x00, 0x00, 0x04,
   0x10, 0x00, 0x00, 0x04, 0x10, 0x00, 0x00, 0x04, 0x10, 0x06, 0x00, 0x04,
   0x10, 0x09, 0x00, 0x04, 0x10, 0x01, 0x00, 0x04, 0x10, 0x21, 0x02, 0x04,
   0x10, 0x29, 0x02, 0x04, 0x10, 0x26, 0x02, 0x04, 0x10, 0x40, 0x31, 0x04,
   0x10, 0x40, 0x49, 0x04, 0x10, 0x80, 0x08, 0x04, 0x10, 0x80, 0x30, 0x04,
   0x10, 0x00, 0x40, 0x04, 0x10, 0x00, 0x48, 0x04, 0x10, 0x00, 0x30, 0x04,
   0x10, 0x00, 0x00, 0x04, 0x10, 0x00, 0x00, 0x04, 0x10, 0x00, 0x00, 0x04,
   0xf0, 0xff, 0xff, 0x07, 0x00, 0x00, 0x00, 0x00, 0x00, 0x00, 0x00, 0x00,
   0x00, 0x00, 0x00, 0x00, 0x00, 0x00, 0x00, 0x00};
