#define tkcvs48_width 48
#define tkcvs48_height 48
static unsigned char tkcvs48_bits[] = {
  0x00, 0x00, 0x00, 0x00, 0x00, 0x00, 0x00, 0x00, 0x00, 0x00, 0x00, 0x00,
  0x00, 0x00, 0x00, 0x00, 0x00, 0x00, 0x00, 0x00, 0x10, 0x00, 0x00, 0x00,
  0xa0, 0xaa, 0x28, 0x00, 0x00, 0x00, 0x50, 0x55, 0x11, 0x00, 0x00, 0x00,
  0x00, 0x0a, 0x28, 0x00, 0x00, 0x00, 0x00, 0x04, 0x10, 0x00, 0x00, 0x00,
  0x00, 0x0a, 0x28, 0x28, 0x00, 0x00, 0x00, 0x04, 0x10, 0x14, 0x00, 0x00,
  0x00, 0x0a, 0x28, 0x0a, 0x00, 0x00, 0x00, 0x04, 0x10, 0x04, 0x00, 0x00,
  0x00, 0x0a, 0x28, 0x02, 0x00, 0x00, 0x00, 0x04, 0x10, 0x01, 0x00, 0x00,
  0x00, 0x0a, 0xa8, 0x02, 0x00, 0x00, 0x00, 0x04, 0x10, 0x05, 0x00, 0x00,
  0x00, 0x0a, 0x28, 0x0a, 0x00, 0x00, 0x00, 0x04, 0x10, 0x04, 0x00, 0x00,
  0x00, 0x0a, 0x28, 0x0a, 0x00, 0x00, 0x00, 0x04, 0x10, 0x14, 0x00, 0x00,
  0x00, 0x0a, 0x28, 0x28, 0x00, 0x00, 0x00, 0x00, 0x00, 0x00, 0x00, 0x00,
  0x00, 0x00, 0x00, 0x00, 0x00, 0x00, 0x00, 0x00, 0x00, 0x00, 0x00, 0x00,
  0x00, 0x00, 0x00, 0x00, 0x00, 0x00, 0x00, 0x00, 0x00, 0x00, 0x00, 0x00,
  0x00, 0x00, 0x00, 0x00, 0x00, 0x00, 0x00, 0xfe, 0x3d, 0xc0, 0xf0, 0x0f,
  0x80, 0xff, 0x39, 0x60, 0xfc, 0x0f, 0xc0, 0x83, 0x39, 0x60, 0x1e, 0x08,
  0xe0, 0x01, 0x38, 0x60, 0x0e, 0x00, 0xe0, 0x00, 0x70, 0x30, 0x0e, 0x00,
  0x70, 0x00, 0x70, 0x30, 0x1e, 0x00, 0x70, 0x00, 0x70, 0x30, 0x7c, 0x00,
  0x70, 0x00, 0xf0, 0x18, 0xf8, 0x01, 0x70, 0x00, 0xe0, 0x18, 0xf0, 0x07,
  0x70, 0x00, 0xe0, 0x18, 0xc0, 0x0f, 0x70, 0x00, 0xe0, 0x1c, 0x00, 0x1f,
  0xf0, 0x00, 0xc0, 0x0d, 0x00, 0x1c, 0xe0, 0x00, 0xc0, 0x0d, 0x00, 0x1c,
  0xe0, 0x01, 0xc0, 0x0f, 0x00, 0x1c, 0xc0, 0x03, 0x81, 0x07, 0x06, 0x0e,
  0x80, 0xff, 0x81, 0x07, 0xfe, 0x07, 0x00, 0xfe, 0x80, 0x07, 0xfe, 0x03,
  0x00, 0x00, 0x00, 0x00, 0x00, 0x00, 0x00, 0x00, 0x00, 0x00, 0x00, 0x00,
  0x00, 0x00, 0x00, 0x00, 0x00, 0x00, 0x00, 0x00, 0x00, 0x00, 0x00, 0x00,
  };
